<?xml version="1.0" encoding="utf-8"?>
<!-- Generator: Adobe Illustrator 24.0.3, SVG Export Plug-In . SVG Version: 6.00 Build 0)  -->
<svg version="1.1" id="Laag_1" xmlns="http://www.w3.org/2000/svg" xmlns:xlink="http://www.w3.org/1999/xlink" x="0px" y="0px"
	 viewBox="0 0 841.89 595.28" style="enable-background:new 0 0 841.89 595.28;" xml:space="preserve">
<style type="text/css">
	.st0{fill:none;stroke:#000000;stroke-width:7.6751;}
</style>
<g>
	<path class="st0" d="M165.33,342.02l504.02-1.72l3.02,176.78c0,0-18.53-108.38-120.88-108.38c-102.36,0-130.1,109.65-130.1,109.65
		S393.31,408.7,295.6,408.7c-88.4,0-126.39,108.8-126.39,108.8L165.33,342.02z"/>
</g>
<line class="st0" x1="421.39" y1="517.51" x2="421.39" y2="342.02"/>
<g>
	<path d="M162.13,320.63V58.16h69.53v24.56h-45.29v92.17h31.89v24.24h-31.89v97.59h46.88v23.92H162.13z"/>
	<path d="M254.29,320.63v-20.41l44.97-155.32h-44.33v-21.69h65.38v20.41L276.3,298.31h43.69v22.32H254.29z"/>
	<path d="M334.66,159.58c0-12.76,2.97-22.53,8.93-29.34c5.95-6.8,15.09-10.21,27.43-10.21c12.12,0,21.21,3.4,27.27,10.21
		c6.06,6.81,9.09,16.58,9.09,29.34v124.7c0,12.76-3.03,22.48-9.09,29.18c-6.06,6.7-15.15,10.05-27.27,10.05
		c-12.34,0-21.48-3.35-27.43-10.05c-5.96-6.7-8.93-16.42-8.93-29.18V159.58z M386.01,160.21c0-5.53-1.01-9.83-3.03-12.92
		c-2.02-3.08-6.01-4.62-11.96-4.62c-5.96,0-9.94,1.55-11.96,4.62c-2.02,3.08-3.03,7.39-3.03,12.92v124.06
		c0,5.53,1.01,9.73,3.03,12.6c2.02,2.87,6.01,4.3,11.96,4.3c5.95,0,9.93-1.48,11.96-4.46c2.02-2.98,3.03-7.34,3.03-13.08V160.21z"/>
	<path d="M481.04,320.63V157.66c0-5.74-0.96-9.83-2.87-12.28c-1.91-2.44-5.21-3.67-9.89-3.67c-3.19,0-6.38,0.96-9.57,2.87
		c-3.19,1.91-5.64,5-7.34,9.25v166.8h-22V123.22h18.5c0.64,4.89,0.96,9.89,0.96,14.99c2.97-5.53,6.91-9.93,11.8-13.23
		c4.89-3.29,10.42-4.94,16.58-4.94c8.93,0,15.47,2.87,19.61,8.61c4.15,5.74,6.22,14.99,6.22,27.75v164.25H481.04z"/>
	<path d="M522.18,320.63v-20.41l44.97-155.32h-44.33v-21.69h65.38v20.41l-44.01,154.68h43.69v22.32H522.18z"/>
	<path d="M602.87,159.58c0-12.76,2.97-22.53,8.93-29.34c5.95-6.8,15.09-10.21,27.43-10.21c12.12,0,21.21,3.4,27.27,10.21
		c6.06,6.81,9.09,16.58,9.09,29.34v124.7c0,12.76-3.03,22.48-9.09,29.18c-6.06,6.7-15.15,10.05-27.27,10.05
		c-12.34,0-21.48-3.35-27.43-10.05c-5.96-6.7-8.93-16.42-8.93-29.18V159.58z M654.22,160.21c0-5.53-1.01-9.83-3.03-12.92
		c-2.02-3.08-6.01-4.62-11.96-4.62c-5.96,0-9.94,1.55-11.96,4.62c-2.02,3.08-3.03,7.39-3.03,12.92v124.06
		c0,5.53,1.01,9.73,3.03,12.6c2.02,2.87,6.01,4.3,11.96,4.3c5.95,0,9.93-1.48,11.96-4.46c2.02-2.98,3.03-7.34,3.03-13.08V160.21z"/>
</g>
</svg>
