<?xml version="1.0" encoding="utf-8"?>
<!-- Generator: Adobe Illustrator 24.0.3, SVG Export Plug-In . SVG Version: 6.00 Build 0)  -->
<svg version="1.1" id="Laag_1" xmlns="http://www.w3.org/2000/svg" xmlns:xlink="http://www.w3.org/1999/xlink" x="0px" y="0px"
	 viewBox="0 0 841.89 595.28" style="enable-background:new 0 0 841.89 595.28;" xml:space="preserve">
<style type="text/css">
	.st0{fill:none;stroke:#000000;stroke-width:7.6751;}
</style>
<g>
	<path class="st0" d="M165.33,342.02l504.02-1.72l3.02,176.78c0,0-18.53-108.38-120.88-108.38c-102.36,0-130.1,109.65-130.1,109.65
		S393.31,408.7,295.6,408.7c-88.4,0-126.39,108.8-126.39,108.8L165.33,342.02z"/>
</g>
<line class="st0" x1="421.39" y1="517.51" x2="421.39" y2="342.02"/>
<g>
	<path d="M211.44,235.96h21.28v44.53c0,27.29-12.12,40.93-36.35,40.93c-23.36,0-35.04-13.64-35.04-40.93V154.1
		c0-13.75,3-24.12,9-31.11c6-6.98,14.68-10.48,26.03-10.48c24.23,0,36.35,13.87,36.35,41.58v65.16H182.3v61.23
		c0,12.01,4.69,18.01,14.08,18.01c10.04,0,15.06-6,15.06-18.01V235.96z M211.44,154.1c0-12-5.02-18.01-15.06-18.01
		c-9.39,0-14.08,6.01-14.08,18.01v48.79h29.14V154.1z"/>
	<path d="M248.11,318.48v-20.96l46.17-159.46h-45.52v-22.27h67.13v20.96l-45.19,158.81h44.86v22.92H248.11z"/>
	<path d="M330.96,153.12c0-13.1,3.05-23.14,9.17-30.13c6.11-6.98,15.5-10.48,28.16-10.48c12.44,0,21.77,3.49,28,10.48
		c6.22,6.99,9.33,17.03,9.33,30.13v128.03c0,13.1-3.11,23.08-9.33,29.96c-6.22,6.88-15.55,10.32-28,10.32
		c-12.66,0-22.05-3.44-28.16-10.32c-6.11-6.87-9.17-16.86-9.17-29.96V153.12z M383.68,153.77c0-5.67-1.04-10.09-3.11-13.26
		c-2.08-3.16-6.17-4.75-12.28-4.75c-6.11,0-10.21,1.59-12.28,4.75c-2.08,3.17-3.11,7.59-3.11,13.26v127.38
		c0,5.68,1.03,9.99,3.11,12.93c2.07,2.95,6.16,4.42,12.28,4.42c6.11,0,10.2-1.53,12.28-4.59c2.07-3.05,3.11-7.53,3.11-13.42V153.77z
		"/>
	<path d="M481.25,318.48V151.16c0-5.9-0.98-10.1-2.95-12.61c-1.96-2.51-5.35-3.76-10.15-3.76c-3.27,0-6.55,0.98-9.82,2.95
		c-3.27,1.96-5.79,5.13-7.53,9.5v171.26H428.2V115.79h18.99c0.65,5.02,0.98,10.15,0.98,15.39c3.05-5.68,7.09-10.2,12.12-13.59
		c5.02-3.38,10.69-5.08,17.03-5.08c9.17,0,15.88,2.95,20.14,8.84c4.26,5.89,6.38,15.39,6.38,28.49v168.63H481.25z"/>
	<path d="M523.49,318.48v-20.96l46.17-159.46h-45.52v-22.27h67.13v20.96l-45.19,158.81h44.86v22.92H523.49z"/>
	<path d="M606,153.12c0-13.1,3.05-23.14,9.17-30.13c6.11-6.98,15.5-10.48,28.16-10.48c12.44,0,21.77,3.49,28,10.48
		c6.22,6.99,9.33,17.03,9.33,30.13v128.03c0,13.1-3.11,23.08-9.33,29.96c-6.22,6.88-15.55,10.32-28,10.32
		c-12.66,0-22.05-3.44-28.16-10.32c-6.11-6.87-9.17-16.86-9.17-29.96V153.12z M658.72,153.77c0-5.67-1.04-10.09-3.11-13.26
		c-2.08-3.16-6.17-4.75-12.28-4.75c-6.11,0-10.21,1.59-12.28,4.75c-2.08,3.17-3.11,7.59-3.11,13.26v127.38
		c0,5.68,1.03,9.99,3.11,12.93c2.07,2.95,6.16,4.42,12.28,4.42c6.11,0,10.2-1.53,12.28-4.59c2.07-3.05,3.11-7.53,3.11-13.42V153.77z
		"/>
</g>
</svg>
