<?xml version="1.0" encoding="utf-8"?>
<!-- Generator: Adobe Illustrator 24.0.3, SVG Export Plug-In . SVG Version: 6.00 Build 0)  -->
<svg version="1.1" id="Laag_1" xmlns="http://www.w3.org/2000/svg" xmlns:xlink="http://www.w3.org/1999/xlink" x="0px" y="0px"
	 viewBox="0 0 841.89 595.28" style="enable-background:new 0 0 841.89 595.28;" xml:space="preserve">
<style type="text/css">
	.st0{fill:none;stroke:#000000;stroke-width:7.6751;}
</style>
<g>
	<path class="st0" d="M165.33,342.02l504.02-1.72l3.02,176.78c0,0-18.53-108.38-120.88-108.38c-102.36,0-130.1,109.65-130.1,109.65
		S393.31,408.7,295.6,408.7c-88.4,0-126.39,108.8-126.39,108.8L165.33,342.02z"/>
</g>
<line class="st0" x1="421.39" y1="517.51" x2="421.39" y2="342.02"/>
<g>
	<path d="M213.07,240.7h20.62v43.14c0,26.43-11.74,39.65-35.2,39.65c-22.63,0-33.94-13.21-33.94-39.65V161.41
		c0-13.32,2.9-23.36,8.72-30.13c5.81-6.77,14.22-10.15,25.22-10.15c23.47,0,35.2,13.43,35.2,40.28v63.12h-48.84v59.31
		c0,11.63,4.54,17.44,13.64,17.44c9.72,0,14.59-5.81,14.59-17.44V240.7z M213.07,161.41c0-11.63-4.87-17.44-14.59-17.44
		c-9.1,0-13.64,5.82-13.64,17.44v47.26h28.23V161.41z"/>
	<path d="M250.18,320.63v-24.11L307.9,83.07h-55.5V59.6h79.61v21.89l-56.77,214.73h56.77v24.42H250.18z"/>
	<path d="M343.64,160.46c0-12.68,2.96-22.41,8.88-29.18c5.92-6.77,15.01-10.15,27.28-10.15c12.05,0,21.09,3.38,27.12,10.15
		c6.02,6.77,9.04,16.5,9.04,29.18v124.02c0,12.68-3.02,22.36-9.04,29.02c-6.02,6.66-15.07,9.99-27.12,9.99
		c-12.26,0-21.36-3.33-27.28-9.99c-5.92-6.66-8.88-16.33-8.88-29.02V160.46z M394.71,161.09c0-5.5-1.01-9.78-3.01-12.84
		c-2.01-3.06-5.98-4.6-11.9-4.6c-5.92,0-9.89,1.54-11.89,4.6c-2.01,3.07-3.01,7.35-3.01,12.84v123.38c0,5.5,1,9.67,3.01,12.53
		c2.01,2.86,5.97,4.28,11.89,4.28c5.92,0,9.88-1.48,11.9-4.44c2.01-2.96,3.01-7.29,3.01-13V161.09z"/>
	<path d="M484.21,320.63V158.55c0-5.71-0.95-9.78-2.86-12.21c-1.9-2.43-5.19-3.65-9.83-3.65c-3.17,0-6.34,0.95-9.52,2.86
		c-3.17,1.9-5.61,4.97-7.29,9.2v165.88h-21.89V124.3h18.4c0.63,4.87,0.95,9.83,0.95,14.91c2.96-5.5,6.87-9.88,11.74-13.16
		c4.86-3.28,10.36-4.92,16.49-4.92c8.88,0,15.38,2.86,19.51,8.56c4.12,5.71,6.18,14.91,6.18,27.6v163.34H484.21z"/>
	<path d="M522.11,320.63v-20.3l44.72-154.46h-44.09V124.3h65.02v20.3L544,298.43h43.45v22.2H522.11z"/>
	<path d="M600.85,160.46c0-12.68,2.96-22.41,8.88-29.18c5.92-6.77,15.01-10.15,27.28-10.15c12.05,0,21.09,3.38,27.12,10.15
		c6.02,6.77,9.04,16.5,9.04,29.18v124.02c0,12.68-3.02,22.36-9.04,29.02c-6.02,6.66-15.07,9.99-27.12,9.99
		c-12.26,0-21.36-3.33-27.28-9.99c-5.92-6.66-8.88-16.33-8.88-29.02V160.46z M651.92,161.09c0-5.5-1.01-9.78-3.01-12.84
		c-2.01-3.06-5.98-4.6-11.9-4.6c-5.92,0-9.89,1.54-11.89,4.6c-2.01,3.07-3.01,7.35-3.01,12.84v123.38c0,5.5,1,9.67,3.01,12.53
		c2.01,2.86,5.97,4.28,11.89,4.28c5.92,0,9.88-1.48,11.9-4.44c2.01-2.96,3.01-7.29,3.01-13V161.09z"/>
</g>
</svg>
