<?xml version="1.0" encoding="utf-8"?>
<!-- Generator: Adobe Illustrator 24.0.3, SVG Export Plug-In . SVG Version: 6.00 Build 0)  -->
<svg version="1.1" id="Laag_1" xmlns="http://www.w3.org/2000/svg" xmlns:xlink="http://www.w3.org/1999/xlink" x="0px" y="0px"
	 viewBox="0 0 841.89 595.28" style="enable-background:new 0 0 841.89 595.28;" xml:space="preserve">
<style type="text/css">
	.st0{fill:none;stroke:#a01e1e;stroke-width:7.6751;}
</style>
<g>
	<path d="M165.4,313.14V79.61h61.86v21.85h-40.29v82h28.37v21.57h-28.37v86.83h41.71v21.28H165.4z"/>
	<path d="M244.57,313.14v-21.57l51.64-190.96h-49.66v-21h71.22v19.58l-50.79,192.1h50.79v21.85H244.57z"/>
	<path d="M333.38,116.78c0-26.48,12.2-39.73,36.6-39.73c24.59,0,36.89,13.24,36.89,39.73v159.18c0,26.49-12.3,39.73-36.89,39.73
		c-24.4,0-36.6-13.24-36.6-39.73V116.78z M385.3,116.78c0-11.92-5.11-17.88-15.32-17.88c-10.03,0-15.04,5.96-15.04,17.88v159.18
		c0,12.3,5.01,18.44,15.04,18.44c10.22,0,15.32-6.15,15.32-18.44V116.78z"/>
	<path d="M481.78,313.14l-40.29-170.53c0.19,17.78,0.28,35.04,0.28,51.78c0,16.74,0,34.01,0,51.78v66.96h-18.73V79.61h25.82
		l35.75,171.1c-0.19-16.08-0.28-31.82-0.28-47.24c0-15.42,0-31.16,0-47.24V79.61h19.01v233.53H481.78z"/>
	<path d="M518.1,313.14v-21.57l51.64-190.96h-49.66v-21h71.22v19.58l-50.79,192.1h50.79v21.85H518.1z"/>
	<path d="M604.35,116.78c0-26.48,12.2-39.73,36.6-39.73c24.59,0,36.89,13.24,36.89,39.73v159.18c0,26.49-12.3,39.73-36.89,39.73
		c-24.4,0-36.6-13.24-36.6-39.73V116.78z M656.28,116.78c0-11.92-5.11-17.88-15.32-17.88c-10.03,0-15.04,5.96-15.04,17.88v159.18
		c0,12.3,5.01,18.44,15.04,18.44c10.22,0,15.32-6.15,15.32-18.44V116.78z"/>
</g>
<g>
	<path class="st0" d="M165.33,342.02l504.02-1.72l3.02,176.78c0,0-18.53-108.38-120.88-108.38c-102.36,0-130.1,109.65-130.1,109.65
		S393.31,408.7,295.6,408.7c-88.4,0-126.39,108.8-126.39,108.8L165.33,342.02z"/>
</g>
<line class="st0" x1="421.39" y1="517.51" x2="421.39" y2="342.02"/>
</svg>
